HIERARCHY
ROOT Hips
{
  OFFSET -1.00283 91.6471 -3.20329
  CHANNELS 6 Xposition Yposition Zposition Zrotation Xrotation Yrotation
  JOINT LeftHip
  {
    OFFSET 7.742 0 0
    CHANNELS 6 Xposition Yposition Zposition Zrotation Xrotation Yrotation
    JOINT LeftKnee
    {
      OFFSET 0 -41.6894 0
      CHANNELS 6 Xposition Yposition Zposition Zrotation Xrotation Yrotation
      JOINT LeftAnkle
      {
        OFFSET 0 -40.5157 0
        CHANNELS 6 Xposition Yposition Zposition Zrotation Xrotation Yrotation
        End Site
        {
          OFFSET 0 -7.04228 0
        }
      }
    }
  }
  JOINT RightHip
  {
    OFFSET -7.742 0 0
    CHANNELS 6 Xposition Yposition Zposition Zrotation Xrotation Yrotation
    JOINT RightKnee
    {
      OFFSET 0 -41.6894 0
      CHANNELS 6 Xposition Yposition Zposition Zrotation Xrotation Yrotation
      JOINT RightAnkle
      {
        OFFSET 0 -40.5157 0
        CHANNELS 6 Xposition Yposition Zposition Zrotation Xrotation Yrotation
        End Site
        {
          OFFSET 0 -7.04228 0
        }
      }
    }
  }
  JOINT Chest
  {
    OFFSET 0 12.9605 0
    CHANNELS 6 Xposition Yposition Zposition Zrotation Xrotation Yrotation
    JOINT Chest2
    {
      OFFSET 0 14.8294 0
      CHANNELS 6 Xposition Yposition Zposition Zrotation Xrotation Yrotation
      JOINT LeftCollar
      {
        OFFSET 2.39257 9.45743 3.97257
        CHANNELS 6 Xposition Yposition Zposition Zrotation Xrotation Yrotation
        JOINT LeftShoulder
        {
          OFFSET 13.114 0 0
          CHANNELS 6 Xposition Yposition Zposition Zrotation Xrotation Yrotation
          JOINT LeftElbow
          {
            OFFSET 0 -27.2663 0
            CHANNELS 6 Xposition Yposition Zposition Zrotation Xrotation Yrotation
            JOINT LeftWrist
            {
              OFFSET 0 -22.1651 0
              CHANNELS 6 Xposition Yposition Zposition Zrotation Xrotation Yrotation
              End Site
              {
                OFFSET 0 -16.6351 0
              }
            }
          }
        }
      }
      JOINT RightCollar
      {
        OFFSET -2.39257 9.45743 3.97257
        CHANNELS 6 Xposition Yposition Zposition Zrotation Xrotation Yrotation
        JOINT RightShoulder
        {
          OFFSET -13.6783 0 0
          CHANNELS 6 Xposition Yposition Zposition Zrotation Xrotation Yrotation
          JOINT RightElbow
          {
            OFFSET 0 -25.0091 0
            CHANNELS 6 Xposition Yposition Zposition Zrotation Xrotation Yrotation
            JOINT RightWrist
            {
              OFFSET 0 -22.1651 0
              CHANNELS 6 Xposition Yposition Zposition Zrotation Xrotation Yrotation
              End Site
              {
                OFFSET 0 -16.116 0
              }
            }
          }
        }
      }
      JOINT Neck
      {
        OFFSET 0 9.14143 0
        CHANNELS 6 Xposition Yposition Zposition Zrotation Xrotation Yrotation
        JOINT Head
        {
          OFFSET 0 11.7146 0
          CHANNELS 6 Xposition Yposition Zposition Zrotation Xrotation Yrotation
          End Site
          {
            OFFSET 0 9.34459 0
          }
        }
      }
    }
  }
}
MOTION
Frames:	6
Frame Time:	0.00833333
2.80742 86.504 -39.1327 2.2341 6.31106 -1.90316 7.742 1.6038e-014 8.01898e-015 -5.13667 -32.2591 -5.04971 -1.00237e-015 -41.6894 0 -6.95751 45.9647 11.9126 0 -40.5157 8.01898e-015 -2.98908 -23.0711 -5.45872 -7.742 1.6038e-014 8.01898e-015 -3.4951 5.838 3.47961 0 -41.6894 0 6.00083 76.4765 -23.8903 0 -40.5157 -8.01898e-015 3.74668 2.78703 8.10518 1.00237e-015 12.9605 8.01898e-015 5.70455 6.14331 8.05491 4.00949e-015 14.8294 0 -9.21728 6.46252 10.3856 2.39257 9.45743 3.97257 25.1107 1.09691 4.84835 13.114 1.6038e-014 0 -11.0216 40.2806 33.115 1.6038e-014 -27.2663 -1.6038e-014 -7.99296 -68.966 -30.8313 0 -22.1651 8.01898e-015 48.5557 -24.6139 12.0072 -2.39257 9.45743 3.97257 -17.4007 -1.01595 5.3868 -13.6783 1.6038e-014 0 12.5863 -15.785 8.18551 0 -25.0091 4.00949e-015 146.823 -72.7739 179.152 8.01898e-015 -22.1651 1.6038e-014 -46.9551 -16.4844 -7.96692 -2.00475e-015 9.14143 0 -7.35818 21.2334 -4.55479 1.00237e-015 11.7146 1.6038e-014 9.15133 -24.497 -8.67713 
3.07136 85.7749 -37.7123 2.93974 5.75535 -1.34336 7.742 0 8.01898e-015 -6.2304 -32.4035 -4.65259 -1.00237e-015 -41.6894 0 -7.12254 48.8095 10.8658 1.00237e-015 -40.5157 8.01898e-015 -2.61414 -23.4134 -4.86154 -7.742 1.6038e-014 8.01898e-015 -4.63273 4.54272 2.68727 0 -41.6894 0 6.29616 81.2244 -23.751 0 -40.5157 0 3.53272 1.72654 7.62099 1.00237e-015 12.9605 8.01898e-015 4.75202 6.66533 7.28043 0 14.8294 0 -9.06614 6.51552 9.61309 2.39257 9.45743 3.97257 24.6929 1.21002 5.31088 13.114 1.6038e-014 0 -11.0946 38.7016 32.3949 0 -27.2663 8.01898e-015 -9.16811 -69.2532 -32.0813 0 -22.1651 0 48.9581 -25.0854 12.3402 -2.39257 9.45743 3.97257 -17.1174 -0.942962 5.1172 -13.6783 1.6038e-014 0 12.6228 -14.0268 8.08065 2.00475e-015 -25.0091 0 144.135 -74.1638 176.16 -8.01898e-015 -22.1651 1.6038e-014 -47.0151 -17.0133 -8.21144 2.00475e-015 9.14143 -8.01898e-015 -5.90773 20.0417 -4.808 -1.00237e-015 11.7146 -1.6038e-014 7.75727 -24.3612 -8.1363 
3.31482 85.1485 -36.2812 3.51782 5.3247 -0.901454 7.742 -1.6038e-014 0 -7.1337 -32.3301 -4.00641 -1.00237e-015 -41.6894 0 -6.75691 51.2117 9.63116 0 -40.5157 0 -2.38903 -24.0049 -4.49698 -7.742 -1.6038e-014 8.01898e-015 -5.60937 3.03964 2.02074 0 -41.6894 0 6.41837 85.621 -23.6796 0 -40.5157 0 3.39649 0.680551 7.35157 1.00237e-015 12.9605 0 3.96286 6.94469 6.57504 0 14.8294 0 -8.90514 6.83355 8.90969 2.39257 9.45743 3.97257 24.1047 1.2978 5.7169 13.114 0 8.01898e-015 -11.0446 36.6992 31.4546 1.6038e-014 -27.2663 0 -10.0388 -69.4575 -32.9846 0 -22.1651 0 49.4006 -25.5442 12.684 -2.39257 9.45743 3.97257 -16.8854 -0.879535 4.87478 -13.6783 1.6038e-014 0 12.487 -12.333 7.7329 0 -25.0091 0 140.544 -75.5217 172.432 -1.6038e-014 -22.1651 0 -46.9737 -17.4966 -8.41481 2.00475e-015 9.14143 0 -4.66339 18.8609 -4.94883 1.00237e-015 11.7146 1.6038e-014 6.4834 -24.3212 -7.5988 
3.53598 84.6319 -34.8257 3.93986 5.02743 -0.602918 7.742 1.6038e-014 0 -7.83884 -31.9669 -2.84257 -1.00237e-015 -41.6894 -8.01898e-015 -5.4809 53.1291 7.86467 0 -40.5157 -4.00949e-015 -2.37465 -24.9863 -4.44504 -7.742 0 0 -6.40548 1.32139 1.4996 -1.00237e-015 -41.6894 0 7.7965 89.652 -25.147 0 -40.5157 -8.01898e-015 3.38686 -0.276436 7.3832 0 12.9605 0 3.35782 6.8784 5.94768 0 14.8294 -8.01898e-015 -8.74497 7.60737 8.29552 2.39257 9.45743 3.97257 23.2806 1.36461 6.11033 13.114 1.6038e-014 8.01898e-015 -10.9376 34.0874 30.3266 -1.6038e-014 -27.2663 0 -10.3795 -69.5375 -33.3354 -1.6038e-014 -22.1651 0 49.9208 -25.9857 13.048 -2.39257 9.45743 3.97257 -16.702 -0.82785 4.66859 -13.6783 1.6038e-014 0 12.1724 -10.8512 7.09039 -1.00237e-015 -25.0091 -8.01898e-015 135.267 -76.9095 167.252 8.01898e-015 -22.1651 0 -46.6948 -17.9321 -8.54578 -2.00475e-015 9.14143 0 -3.60765 17.6015 -4.96083 5.01186e-016 11.7146 1.6038e-014 5.2986 -24.4064 -7.04633 
3.7451 84.1946 -33.3643 4.28604 4.83307 -0.382299 7.742 0 -8.01898e-015 -8.47936 -31.361 -1.43804 0 -41.6894 -8.01898e-015 -3.5783 54.5935 5.69129 0 -40.5157 0 -2.48269 -26.2968 -4.55232 -7.742 -1.6038e-014 -8.01898e-015 -7.13021 -0.576933 1.03328 0 -41.6894 0 -172.911 86.6011 155.359 0 -40.5157 4.00949e-015 3.44652 -1.21338 7.57657 0 12.9605 -8.01898e-015 2.83836 6.57329 5.35184 4.00949e-015 14.8294 0 -8.58678 8.69792 7.72249 2.39257 9.45743 3.97257 22.2777 1.41965 6.50838 13.114 1.6038e-014 0 -10.8599 30.9588 29.1361 0 -27.2663 0 -10.3449 -69.5301 -33.2992 0 -22.1651 -4.00949e-015 50.4928 -26.4209 13.43 -2.39257 9.45743 3.97257 -16.541 -0.782692 4.48276 -13.6783 3.20759e-014 8.01898e-015 11.7457 -9.49645 6.21092 -1.00237e-015 -25.0091 0 127.789 -78.2646 160.049 -1.6038e-014 -22.1651 3.20759e-014 -46.2402 -18.343 -8.62831 0 9.14143 0 -2.63487 16.237 -4.8926 0 11.7146 1.6038e-014 4.14515 -24.5613 -6.46784 
3.93854 83.8439 -31.9142 4.54273 4.74706 -0.229357 7.742 1.6038e-014 0 -9.02569 -30.6231 -0.217488 1.00237e-015 -41.6894 -2.00475e-015 -1.76892 55.6434 3.80074 0 -40.5157 0 -2.66629 -27.6678 -4.7672 -7.742 0 -8.01898e-015 -7.73408 -2.66186 0.641792 0 -41.6894 0 -172.785 83.1823 154.997 0 -40.5157 -4.00949e-015 3.55099 -2.24022 7.84072 0 12.9605 0 2.39763 6.17792 4.80537 4.00949e-015 14.8294 0 -8.37627 9.78519 7.18096 2.39257 9.45743 3.97257 21.2035 1.44652 6.79925 13.114 1.6038e-014 0 -10.8024 27.6018 27.9354 1.6038e-014 -27.2663 8.01898e-015 -10.2651 -69.5183 -33.157 0 -22.1651 0 51.0519 -26.8516 13.8106 -2.39257 9.45743 3.97257 -16.4292 -0.743168 4.30882 -13.6783 3.20759e-014 0 11.249 -7.98763 5.17679 -2.00475e-015 -25.0091 0 119.186 -79.3274 151.806 0 -22.1651 0 -45.8638 -18.7179 -8.71263 0 9.14143 -8.01898e-015 -1.8362 14.9874 -4.75385 0 11.7146 0 3.1475 -24.7622 -5.9082 
